# MagicaVoxel @ Ephtracy

# group
o 

# material
mtllib C4.mtl
usemtl palette

# normals
vn -1 0 0
vn 1 0 0
vn 0 0 1
vn 0 0 -1
vn 0 -1 0
vn 0 1 0

# texcoords
vt 0.744141 0.5
vt 0.748047 0.5
vt 0.818359 0.5
vt 0.841797 0.5
vt 0.974609 0.5
vt 0.982422 0.5
vt 0.990234 0.5
vt 0.994141 0.5

# verts
v 1.4 2 -1.7
v 1.4 2 -2.4
v 1.4 2.4 -1.7
v 1.4 2.4 -2.4
v 1.7 2.4 -2.1
v 1.7 2.4 -2.4
v 1.7 2.5 -2.1
v 1.7 2.5 -2.4
v 2.2 2.4 -2.1
v 2.2 2.4 -2.4
v 2.2 2.5 -2.1
v 2.2 2.5 -2.4
v 2.5 2 -1.7
v 2.5 2 -2.4
v 2.5 2.4 -1.7
v 2.5 2.4 -2.4
v 1.4 2 -1.7
v 1.4 2.4 -1.7
v 1.5 2 -1.7
v 1.5 2.4 -1.7
v 1.6 2 -1.7
v 1.6 2.4 -1.7
v 2.3 2 -1.7
v 2.3 2.4 -1.7
v 2.4 2 -1.7
v 2.4 2.4 -1.7
v 2.5 2 -1.7
v 2.5 2.4 -1.7
v 1.7 2.4 -2.1
v 1.7 2.5 -2.1
v 1.8 2.4 -2.1
v 1.9 2.4 -2.1
v 2 2.4 -2.1
v 2.1 2.4 -2.1
v 2.2 2.4 -2.1
v 2.2 2.5 -2.1
v 1.4 2 -2.4
v 1.4 2.4 -2.4
v 1.5 2 -2.4
v 1.5 2.4 -2.4
v 1.6 2 -2.4
v 1.6 2.4 -2.4
v 1.7 2.4 -2.4
v 1.7 2.5 -2.4
v 2.2 2.4 -2.4
v 2.2 2.5 -2.4
v 2.3 2 -2.4
v 2.3 2.4 -2.4
v 2.4 2 -2.4
v 2.4 2.4 -2.4
v 2.5 2 -2.4
v 2.5 2.4 -2.4
v 1.4 2 -1.7
v 1.5 2 -1.7
v 1.6 2 -1.7
v 2.3 2 -1.7
v 2.4 2 -1.7
v 2.5 2 -1.7
v 1.4 2 -2.4
v 1.5 2 -2.4
v 1.6 2 -2.4
v 2.3 2 -2.4
v 2.4 2 -2.4
v 2.5 2 -2.4
v 1.4 2.4 -1.7
v 1.5 2.4 -1.7
v 1.6 2.4 -1.7
v 2.3 2.4 -1.7
v 2.4 2.4 -1.7
v 2.5 2.4 -1.7
v 1.7 2.4 -1.8
v 1.8 2.4 -1.8
v 1.9 2.4 -1.8
v 2 2.4 -1.8
v 2.1 2.4 -1.8
v 2.2 2.4 -1.8
v 1.7 2.4 -1.9
v 1.8 2.4 -1.9
v 1.9 2.4 -1.9
v 2 2.4 -1.9
v 2.1 2.4 -1.9
v 2.2 2.4 -1.9
v 1.7 2.4 -2
v 1.8 2.4 -2
v 1.9 2.4 -2
v 2 2.4 -2
v 2.1 2.4 -2
v 2.2 2.4 -2
v 1.7 2.4 -2.1
v 1.8 2.4 -2.1
v 1.9 2.4 -2.1
v 2 2.4 -2.1
v 2.1 2.4 -2.1
v 2.2 2.4 -2.1
v 1.4 2.4 -2.4
v 1.5 2.4 -2.4
v 1.6 2.4 -2.4
v 1.7 2.4 -2.4
v 2.2 2.4 -2.4
v 2.3 2.4 -2.4
v 2.4 2.4 -2.4
v 2.5 2.4 -2.4
v 1.7 2.5 -2.1
v 2.2 2.5 -2.1
v 1.8 2.5 -2.2
v 2.1 2.5 -2.2
v 1.8 2.5 -2.3
v 2.1 2.5 -2.3
v 1.7 2.5 -2.4
v 2.2 2.5 -2.4

# faces
f 3/3/1 2/3/1 1/3/1
f 4/3/1 2/3/1 3/3/1
f 7/6/1 6/6/1 5/6/1
f 8/6/1 6/6/1 7/6/1
f 9/6/2 10/6/2 11/6/2
f 11/6/2 10/6/2 12/6/2
f 13/3/2 14/3/2 15/3/2
f 15/3/2 14/3/2 16/3/2
f 19/3/3 18/3/3 17/3/3
f 20/3/3 18/3/3 19/3/3
f 21/5/3 20/5/3 19/5/3
f 22/5/3 20/5/3 21/5/3
f 23/3/3 22/3/3 21/3/3
f 24/3/3 22/3/3 23/3/3
f 25/5/3 24/5/3 23/5/3
f 26/5/3 24/5/3 25/5/3
f 27/3/3 26/3/3 25/3/3
f 28/3/3 26/3/3 27/3/3
f 31/6/3 30/6/3 29/6/3
f 32/6/3 30/6/3 31/6/3
f 33/6/3 30/6/3 32/6/3
f 34/6/3 30/6/3 33/6/3
f 35/6/3 30/6/3 34/6/3
f 36/6/3 30/6/3 35/6/3
f 37/3/4 38/3/4 39/3/4
f 39/3/4 38/3/4 40/3/4
f 39/5/4 40/5/4 41/5/4
f 41/5/4 40/5/4 42/5/4
f 41/3/4 42/3/4 43/3/4
f 41/3/4 43/3/4 45/3/4
f 43/6/4 44/6/4 45/6/4
f 45/6/4 44/6/4 46/6/4
f 41/3/4 45/3/4 47/3/4
f 47/3/4 45/3/4 48/3/4
f 47/5/4 48/5/4 49/5/4
f 49/5/4 48/5/4 50/5/4
f 49/3/4 50/3/4 51/3/4
f 51/3/4 50/3/4 52/3/4
f 59/3/5 54/3/5 53/3/5
f 60/5/5 55/5/5 54/5/5
f 60/3/5 54/3/5 59/3/5
f 61/3/5 56/3/5 55/3/5
f 61/5/5 55/5/5 60/5/5
f 62/5/5 57/5/5 56/5/5
f 62/3/5 56/3/5 61/3/5
f 63/3/5 58/3/5 57/3/5
f 63/5/5 57/5/5 62/5/5
f 64/3/5 58/3/5 63/3/5
f 67/3/6 68/3/6 71/3/6
f 71/3/6 68/3/6 72/3/6
f 72/3/6 68/3/6 73/3/6
f 73/3/6 68/3/6 74/3/6
f 74/3/6 68/3/6 75/3/6
f 75/3/6 68/3/6 76/3/6
f 67/3/6 71/3/6 77/3/6
f 71/8/6 72/8/6 77/8/6
f 72/7/6 73/7/6 78/7/6
f 77/8/6 72/8/6 78/8/6
f 73/8/6 74/8/6 79/8/6
f 78/7/6 73/7/6 79/7/6
f 74/7/6 75/7/6 80/7/6
f 79/8/6 74/8/6 80/8/6
f 75/4/6 76/4/6 81/4/6
f 80/7/6 75/7/6 81/7/6
f 76/3/6 68/3/6 82/3/6
f 81/4/6 76/4/6 82/4/6
f 67/3/6 77/3/6 83/3/6
f 77/7/6 78/7/6 83/7/6
f 78/8/6 79/8/6 84/8/6
f 83/7/6 78/7/6 84/7/6
f 80/7/6 81/7/6 85/7/6
f 84/8/6 79/8/6 85/8/6
f 79/7/6 80/7/6 85/7/6
f 81/7/6 82/7/6 85/7/6
f 85/7/6 82/7/6 86/7/6
f 86/7/6 82/7/6 87/7/6
f 82/3/6 68/3/6 88/3/6
f 87/7/6 82/7/6 88/7/6
f 83/8/6 84/8/6 89/8/6
f 67/3/6 83/3/6 89/3/6
f 84/7/6 85/7/6 90/7/6
f 89/8/6 84/8/6 90/8/6
f 85/8/6 86/8/6 91/8/6
f 90/7/6 85/7/6 91/7/6
f 86/7/6 87/7/6 92/7/6
f 91/8/6 86/8/6 92/8/6
f 87/1/6 88/1/6 93/1/6
f 92/7/6 87/7/6 93/7/6
f 88/3/6 68/3/6 94/3/6
f 93/1/6 88/1/6 94/1/6
f 65/3/6 66/3/6 95/3/6
f 66/5/6 67/5/6 96/5/6
f 95/3/6 66/3/6 96/3/6
f 67/3/6 89/3/6 97/3/6
f 96/5/6 67/5/6 97/5/6
f 97/3/6 89/3/6 98/3/6
f 94/3/6 68/3/6 99/3/6
f 68/5/6 69/5/6 100/5/6
f 99/3/6 68/3/6 100/3/6
f 69/3/6 70/3/6 101/3/6
f 100/5/6 69/5/6 101/5/6
f 101/3/6 70/3/6 102/3/6
f 103/6/6 104/6/6 105/6/6
f 105/6/6 104/6/6 106/6/6
f 103/6/6 105/6/6 107/6/6
f 105/2/6 106/2/6 107/2/6
f 106/6/6 104/6/6 108/6/6
f 107/2/6 106/2/6 108/2/6
f 103/6/6 107/6/6 109/6/6
f 107/6/6 108/6/6 109/6/6
f 108/6/6 104/6/6 110/6/6
f 109/6/6 108/6/6 110/6/6
